<svg xmlns="http://www.w3.org/2000/svg" version="1.1" xmlns:xlink="http://www.w3.org/1999/xlink" xmlns:svgjs="http://svgjs.dev/svgjs" width="2000" height="1500" viewBox="0 0 2000 1500"><rect width="2000" height="1500" fill="#ffffff"></rect><g transform="matrix(0.75,0,0,0.75,249.090909090909,560.6553912421043)"><svg viewBox="0 0 396 100" data-background-color="#ffffff" preserveAspectRatio="xMidYMid meet" height="505" width="2000" xmlns="http://www.w3.org/2000/svg" xmlns:xlink="http://www.w3.org/1999/xlink"><g id="tight-bounds" transform="matrix(1,0,0,1,0.2400000000000091,-0.008024090324568078)"><svg viewBox="0 0 395.52 100.01604818064914" height="100.01604818064914" width="395.52"><g><svg viewBox="0 0 542.3886572900635 137.15506189360988" height="100.01604818064914" width="395.52"><g transform="matrix(1,0,0,1,146.86865729006354,18.955583807293408)"><svg viewBox="0 0 395.52 99.24389427902307" height="99.24389427902307" width="395.52"><g id="textblocktransform"><svg viewBox="0 0 395.52 99.24389427902307" height="99.24389427902307" width="395.52" id="textblock"><g><svg viewBox="0 0 395.52 99.24389427902307" height="99.24389427902307" width="395.52"><g transform="matrix(1,0,0,1,0,0)"><svg width="395.52" viewBox="3.25 -37.5 149.44 37.5" height="99.24389427902307" data-palette-color="#000000"><g class="wordmark-text-0" data-fill-palette-color="primary" id="text-0"><path d="M17.55-14.15L17.55-17.7 10.5-17.7 10.5-3.4 13.75-3.4 13.75 0 3.25 0 3.25-3.4 6.4-3.4 6.4-34.1 3.25-34.1 3.25-37.5 26.7-37.5 26.7-28.25 23.3-28.25 23.3-34.1 10.5-34.1 10.5-21.1 17.55-21.1 17.55-24.65 20.95-24.65 20.95-14.15 17.55-14.15ZM40.45-34.1L40.45-3.4 43.7-3.4 43.7 0 33.2 0 33.2-3.4 36.35-3.4 36.35-34.1 33.2-34.1 33.2-37.5 43.7-37.5 43.7-34.1 40.45-34.1ZM80.4-37.5L80.4-34.1 77.25-34.1 77.25 0 72.35 0 58.2-29.2 58.2-3.4 61.45-3.4 61.45 0 50.95 0 50.95-3.4 54.1-3.4 54.1-34.1 50.95-34.1 50.95-37.5 58.65-37.5 73.15-7.7 73.15-34.1 69.9-34.1 69.9-37.5 80.4-37.5ZM94.89-34.1L94.89-3.4 98.14-3.4 98.14 0 87.64 0 87.64-3.4 90.79-3.4 90.79-34.1 87.64-34.1 87.64-37.5 98.14-37.5 98.14-34.1 94.89-34.1ZM110.14 0L110.14-3.4 113.29-3.4 113.29-34.1 106.99-34.1 106.99-28.2 103.39-28.2 103.39-37.5 127.34-37.5 127.34-28.2 123.69-28.2 123.69-34.1 117.39-34.1 117.39-3.4 120.64-3.4 120.64 0 110.14 0ZM137.14-37.5L146.89-37.5Q149.94-37.5 151.31-35.83 152.69-34.15 152.69-30.85L152.69-30.85 152.69-6.8Q152.69-3.2 151.49-1.6 150.29 0 147.14 0L147.14 0 137.54 0Q132.74 0 131.89-3.6L131.89-3.6Q131.59-4.7 131.59-6.05L131.59-6.05 131.59-30.85Q131.59-34.2 132.69-35.7L132.69-35.7Q133.94-37.5 137.14-37.5L137.14-37.5ZM135.59-34.1L135.59-3.4 148.69-3.4 148.69-34.1 135.59-34.1Z" fill="#000000" data-fill-palette-color="primary"></path></g></svg></g></svg></g></svg></g></svg></g><g><svg viewBox="0 0 123.4395557042489 137.15506189360988" height="137.15506189360988" width="123.4395557042489"><g><svg xmlns="http://www.w3.org/2000/svg" xmlns:xlink="http://www.w3.org/1999/xlink" version="1.1" x="0" y="0" viewBox="9.5 5 81 90" enable-background="new 0 0 100 100" xml:space="preserve" height="137.15506189360988" width="123.4395557042489" class="icon-icon-0" data-fill-palette-color="accent" id="icon-0"><g fill="#000000" data-fill-palette-color="accent"><path fill="#000000" d="M72.5 32v-9c0-9.94-8.058-18-18-18h-9c-9.94 0-18 8.06-18 18v9h-18v47.25C9.5 87.949 16.551 95 25.25 95h49.5c8.699 0 15.75-7.051 15.75-15.75V32H72.5zM36.5 23c0-4.964 4.039-9 9-9h9c4.964 0 9 4.036 9 9v9h-27V23zM27.5 50h9v9h-9V50zM45.5 77h-9v-9h9V77zM45.5 50h9v9h-9V50zM63.5 77h-9v-9h9V77zM72.5 59h-9v-9h9V59z" data-fill-palette-color="accent"></path></g></svg></g></svg></g></svg></g><defs></defs></svg><rect width="395.52" height="100.01604818064914" fill="none" stroke="none" visibility="hidden"></rect></g></svg></g></svg>